<svg width="104" height="18" viewBox="0 0 104 18" fill="none" xmlns="http://www.w3.org/2000/svg">
<path d="M0.762031 17.5V0.219999H3.69003L11.706 12.4V0.219999H14.634V17.5H11.706L3.69003 5.32V17.5H0.762031ZM23.8806 17.86C22.5686 17.86 21.4166 17.576 20.4246 17.008C19.4326 16.44 18.6566 15.652 18.0966 14.644C17.5446 13.636 17.2686 12.476 17.2686 11.164C17.2686 9.748 17.5406 8.52 18.0846 7.48C18.6286 6.432 19.3846 5.62 20.3526 5.044C21.3206 4.468 22.4406 4.18 23.7126 4.18C25.0566 4.18 26.1966 4.496 27.1326 5.128C28.0766 5.752 28.7766 6.636 29.2326 7.78C29.6886 8.924 29.8606 10.272 29.7486 11.824H26.8806V10.768C26.8726 9.36 26.6246 8.332 26.1366 7.684C25.6486 7.036 24.8806 6.712 23.8326 6.712C22.6486 6.712 21.7686 7.08 21.1926 7.816C20.6166 8.544 20.3286 9.612 20.3286 11.02C20.3286 12.332 20.6166 13.348 21.1926 14.068C21.7686 14.788 22.6086 15.148 23.7126 15.148C24.4246 15.148 25.0366 14.992 25.5486 14.68C26.0686 14.36 26.4686 13.9 26.7486 13.3L29.6046 14.164C29.1086 15.332 28.3406 16.24 27.3006 16.888C26.2686 17.536 25.1286 17.86 23.8806 17.86ZM19.4166 11.824V9.64H28.3326V11.824H19.4166ZM35.4613 17.5L30.7573 4.54H33.6493L36.9133 13.936L40.1653 4.54H43.0693L38.3653 17.5H35.4613ZM45.223 17.5V4.54H47.779V7.696L47.467 7.288C47.627 6.856 47.839 6.464 48.103 6.112C48.375 5.752 48.699 5.456 49.075 5.224C49.395 5.008 49.747 4.84 50.131 4.72C50.523 4.592 50.923 4.516 51.331 4.492C51.739 4.46 52.135 4.476 52.519 4.54V7.24C52.135 7.128 51.691 7.092 51.187 7.132C50.691 7.172 50.243 7.312 49.843 7.552C49.443 7.768 49.115 8.044 48.859 8.38C48.611 8.716 48.427 9.1 48.307 9.532C48.187 9.956 48.127 10.416 48.127 10.912V17.5H45.223ZM55.0489 17.5V0.219999H57.9409V14.788H65.5729V17.5H55.0489ZM71.2298 17.86C70.2938 17.86 69.5018 17.684 68.8538 17.332C68.2058 16.972 67.7138 16.496 67.3778 15.904C67.0498 15.312 66.8858 14.66 66.8858 13.948C66.8858 13.324 66.9898 12.764 67.1978 12.268C67.4058 11.764 67.7258 11.332 68.1578 10.972C68.5898 10.604 69.1498 10.304 69.8378 10.072C70.3578 9.904 70.9658 9.752 71.6618 9.616C72.3658 9.48 73.1258 9.356 73.9418 9.244C74.7658 9.124 75.6258 8.996 76.5218 8.86L75.4898 9.448C75.4978 8.552 75.2978 7.892 74.8898 7.468C74.4818 7.044 73.7938 6.832 72.8258 6.832C72.2418 6.832 71.6778 6.968 71.1338 7.24C70.5898 7.512 70.2098 7.98 69.9938 8.644L67.3538 7.816C67.6738 6.72 68.2818 5.84 69.1778 5.176C70.0818 4.512 71.2978 4.18 72.8258 4.18C73.9778 4.18 74.9898 4.368 75.8618 4.744C76.7418 5.12 77.3938 5.736 77.8178 6.592C78.0498 7.048 78.1898 7.516 78.2378 7.996C78.2858 8.468 78.3098 8.984 78.3098 9.544V17.5H75.7778V14.692L76.1978 15.148C75.6138 16.084 74.9298 16.772 74.1458 17.212C73.3698 17.644 72.3978 17.86 71.2298 17.86ZM71.8058 15.556C72.4618 15.556 73.0218 15.44 73.4858 15.208C73.9498 14.976 74.3178 14.692 74.5898 14.356C74.8698 14.02 75.0578 13.704 75.1538 13.408C75.3058 13.04 75.3898 12.62 75.4058 12.148C75.4298 11.668 75.4418 11.28 75.4418 10.984L76.3298 11.248C75.4578 11.384 74.7098 11.504 74.0858 11.608C73.4618 11.712 72.9258 11.812 72.4778 11.908C72.0298 11.996 71.6338 12.096 71.2898 12.208C70.9538 12.328 70.6698 12.468 70.4378 12.628C70.2058 12.788 70.0258 12.972 69.8978 13.18C69.7778 13.388 69.7178 13.632 69.7178 13.912C69.7178 14.232 69.7978 14.516 69.9578 14.764C70.1178 15.004 70.3498 15.196 70.6538 15.34C70.9658 15.484 71.3498 15.556 71.8058 15.556ZM89.0299 17.5C88.1739 17.66 87.3339 17.728 86.5099 17.704C85.6939 17.688 84.9619 17.54 84.3139 17.26C83.6659 16.972 83.1739 16.52 82.8379 15.904C82.5419 15.344 82.3859 14.772 82.3699 14.188C82.3539 13.604 82.3459 12.944 82.3459 12.208V0.939999H85.2259V12.04C85.2259 12.56 85.2299 13.016 85.2379 13.408C85.2539 13.8 85.3379 14.12 85.4899 14.368C85.7779 14.848 86.2379 15.116 86.8699 15.172C87.5019 15.228 88.2219 15.196 89.0299 15.076V17.5ZM79.9939 6.808V4.54H89.0299V6.808H79.9939ZM97.0525 17.86C95.7405 17.86 94.5885 17.576 93.5965 17.008C92.6045 16.44 91.8285 15.652 91.2685 14.644C90.7165 13.636 90.4405 12.476 90.4405 11.164C90.4405 9.748 90.7125 8.52 91.2565 7.48C91.8005 6.432 92.5565 5.62 93.5245 5.044C94.4925 4.468 95.6125 4.18 96.8845 4.18C98.2285 4.18 99.3685 4.496 100.304 5.128C101.248 5.752 101.948 6.636 102.404 7.78C102.86 8.924 103.032 10.272 102.92 11.824H100.052V10.768C100.044 9.36 99.7965 8.332 99.3085 7.684C98.8205 7.036 98.0525 6.712 97.0045 6.712C95.8205 6.712 94.9405 7.08 94.3645 7.816C93.7885 8.544 93.5005 9.612 93.5005 11.02C93.5005 12.332 93.7885 13.348 94.3645 14.068C94.9405 14.788 95.7805 15.148 96.8845 15.148C97.5965 15.148 98.2085 14.992 98.7205 14.68C99.2405 14.36 99.6405 13.9 99.9205 13.3L102.776 14.164C102.28 15.332 101.512 16.24 100.472 16.888C99.4405 17.536 98.3005 17.86 97.0525 17.86ZM92.5885 11.824V9.64H101.504V11.824H92.5885Z" fill="#232323"/>
</svg>
