<svg width="81" height="22" viewBox="0 0 81 22" fill="none" xmlns="http://www.w3.org/2000/svg">
<path d="M24.396 13.7668L27.2347 4.74902H29.4545L32.2932 13.7668H30.7351L28.1525 5.67748H28.494L25.9541 13.7668H24.396ZM25.9861 11.8138V10.4051H30.7138V11.8138H25.9861Z" fill="#232323"/>
<path d="M33.4031 13.7668V7.01148H34.7477V9.10318H34.9292V13.7668H33.4031ZM38.0987 13.7668V10.5119C38.0987 10.2984 38.0881 10.0637 38.056 9.80753C38.024 9.5514 37.96 9.29528 37.8533 9.06049C37.7466 8.82571 37.5865 8.62295 37.373 8.47354C37.1596 8.32413 36.8821 8.23876 36.5193 8.23876C36.3272 8.23876 36.1351 8.27077 35.9537 8.3348C35.7616 8.39883 35.5908 8.50555 35.4414 8.65496C35.292 8.80437 35.1639 9.01781 35.0786 9.28461C34.9825 9.5514 34.9398 9.89291 34.9398 10.2984L34.0434 9.91425C34.0434 9.33797 34.1501 8.81504 34.3742 8.34547C34.5983 7.87591 34.9292 7.50239 35.356 7.22492C35.7936 6.94745 36.3272 6.80872 36.9568 6.80872C37.4584 6.80872 37.8746 6.89409 38.1948 7.05417C38.5149 7.22492 38.7817 7.43836 38.9738 7.69449C39.1659 7.95061 39.3047 8.22808 39.4007 8.51623C39.4968 8.80437 39.5501 9.08184 39.5821 9.34864C39.6141 9.60476 39.6248 9.8182 39.6248 9.98895V13.7668H38.0987Z" fill="#232323"/>
<path d="M43.136 13.959C42.6451 13.959 42.2395 13.863 41.898 13.6815C41.5565 13.5001 41.3004 13.244 41.1297 12.9345C40.9589 12.625 40.8735 12.2835 40.8735 11.91C40.8735 11.5898 40.9269 11.291 41.0336 11.0349C41.1403 10.7788 41.3111 10.544 41.5352 10.3626C41.7593 10.1705 42.0474 10.0211 42.4103 9.89299C42.6771 9.80762 42.9972 9.72224 43.3601 9.65821C43.7229 9.58351 44.1178 9.51948 44.5447 9.46612C44.9716 9.40208 45.4198 9.33805 45.8893 9.27402L45.3557 9.58351C45.3557 9.11394 45.2597 8.77244 45.0463 8.54833C44.8328 8.32422 44.47 8.2175 43.9684 8.2175C43.6589 8.2175 43.3708 8.2922 43.0826 8.43094C42.7945 8.56967 42.6024 8.81513 42.485 9.1673L41.1083 8.74043C41.2791 8.16414 41.5886 7.70525 42.0581 7.36375C42.5277 7.02224 43.1573 6.84082 43.9577 6.84082C44.5554 6.84082 45.0889 6.93687 45.5478 7.13963C46.0067 7.33173 46.3482 7.65189 46.5617 8.10011C46.6791 8.33489 46.7538 8.58035 46.7858 8.8258C46.8071 9.07125 46.8285 9.34873 46.8285 9.63687V13.7669H45.5052V12.3049L45.7293 12.5396C45.4198 13.0305 45.0676 13.3827 44.6621 13.6175C44.2565 13.8416 43.7443 13.959 43.136 13.959ZM43.4348 12.7531C43.7763 12.7531 44.0644 12.689 44.3099 12.5717C44.5554 12.4543 44.7474 12.3049 44.8862 12.1234C45.0249 11.9527 45.1316 11.7819 45.1743 11.6325C45.249 11.4404 45.3024 11.2163 45.3131 10.9709C45.3237 10.7254 45.3237 10.5226 45.3237 10.3626L45.7826 10.5013C45.3237 10.576 44.9395 10.64 44.6087 10.6934C44.2779 10.7467 44.0004 10.8001 43.7656 10.8428C43.5308 10.8962 43.3281 10.9388 43.1467 11.0029C42.9759 11.0669 42.8265 11.1416 42.6984 11.227C42.581 11.3124 42.485 11.4084 42.421 11.5151C42.3569 11.6218 42.3249 11.7499 42.3249 11.8993C42.3249 12.0701 42.3676 12.2088 42.453 12.3369C42.5384 12.4649 42.6557 12.561 42.8158 12.6357C43.0079 12.7211 43.2 12.7531 43.4348 12.7531Z" fill="#232323"/>
<path d="M48.5891 13.7668V4.56763H50.0939V13.7668H48.5891Z" fill="#232323"/>
<path d="M52.8582 16.7763L54.1602 13.2012L54.1815 14.2577L51.2361 7.01147H52.8049L54.8966 12.3688H54.491L56.5294 7.01147H58.0341L54.2669 16.7763H52.8582Z" fill="#232323"/>
<path d="M58.7275 8.19615V7.01156H63.4445V8.19615H58.7275ZM63.4339 13.7669C62.9856 13.8523 62.5481 13.8843 62.1212 13.8736C61.6943 13.8629 61.3101 13.7882 60.9686 13.6388C60.6271 13.4894 60.371 13.2546 60.2003 12.9345C60.0509 12.6463 59.9655 12.3475 59.9548 12.038C59.9441 11.7286 59.9441 11.3871 59.9441 11.0029V5.1333H61.4489V10.9282C61.4489 11.195 61.4489 11.4404 61.4596 11.6432C61.4702 11.8459 61.5129 12.0167 61.5876 12.1448C61.737 12.3902 61.9825 12.5396 62.3026 12.561C62.6335 12.593 63.007 12.5716 63.4339 12.5076V13.7669Z" fill="#232323"/>
<path d="M65.0239 5.98696V4.59961H66.5287V5.98696H65.0239ZM65.0239 13.7668V7.01147H66.5287V13.7668H65.0239Z" fill="#232323"/>
<path d="M71.342 13.9589C70.6483 13.9589 70.0507 13.7989 69.5598 13.4894C69.0689 13.1799 68.6954 12.753 68.4286 12.2194C68.1724 11.6858 68.0337 11.0668 68.0337 10.3945C68.0337 9.70083 68.1724 9.09253 68.4392 8.54826C68.706 8.01466 69.0902 7.58779 69.5918 7.28897C70.0934 6.97949 70.6803 6.83008 71.3633 6.83008C72.1317 6.83008 72.7827 7.02217 73.3163 7.40636C73.8499 7.79055 74.1914 8.32415 74.3621 8.98581L72.8574 9.39134C72.74 9.0285 72.5479 8.74035 72.2705 8.54826C72.0037 8.34549 71.6942 8.24945 71.342 8.24945C70.9471 8.24945 70.627 8.34549 70.3708 8.52692C70.1147 8.70834 69.9333 8.96447 69.8052 9.2953C69.6878 9.62613 69.6238 9.98897 69.6238 10.4052C69.6238 11.0455 69.7625 11.5684 70.0507 11.9633C70.3388 12.3581 70.7657 12.5609 71.3313 12.5609C71.7369 12.5609 72.0463 12.4649 72.2811 12.2834C72.5159 12.102 72.6867 11.8352 72.804 11.4937L74.3408 11.8352C74.1274 12.5289 73.7645 13.0518 73.2416 13.4253C72.74 13.7775 72.0997 13.9589 71.342 13.9589Z" fill="#232323"/>
<path d="M78.2252 13.9589C77.3928 13.9589 76.7098 13.7668 76.1869 13.3933C75.6639 13.0198 75.3438 12.4862 75.2371 11.8139L76.7738 11.5791C76.8485 11.9099 77.0299 12.1767 77.2967 12.3688C77.5635 12.5609 77.905 12.657 78.3213 12.657C78.6841 12.657 78.9616 12.5823 79.1643 12.4435C79.3671 12.3048 79.4631 12.102 79.4631 11.8566C79.4631 11.7072 79.4311 11.5791 79.3564 11.483C79.2817 11.387 79.1216 11.3016 78.8762 11.2056C78.6307 11.1202 78.2572 11.0028 77.745 10.8747C77.1794 10.7253 76.7311 10.5653 76.3896 10.3945C76.0588 10.2238 75.8133 10.021 75.6746 9.77553C75.5252 9.54075 75.4505 9.25261 75.4505 8.91111C75.4505 8.4949 75.5572 8.12138 75.7813 7.8119C76.0054 7.50241 76.3149 7.25696 76.7098 7.0862C77.1046 6.91545 77.5742 6.83008 78.1078 6.83008C78.6307 6.83008 79.1003 6.91545 79.5058 7.07553C79.9114 7.23561 80.2422 7.47039 80.4877 7.76921C80.7331 8.06802 80.8932 8.4202 80.9465 8.82573L79.4098 9.1032C79.3671 8.81506 79.239 8.59095 79.0149 8.4202C78.7908 8.24945 78.492 8.16407 78.1185 8.14273C77.7663 8.12138 77.4782 8.17474 77.2647 8.30281C77.0513 8.43087 76.9446 8.61229 76.9446 8.8364C76.9446 8.96447 76.9873 9.07118 77.0726 9.16723C77.158 9.26328 77.3394 9.34865 77.6062 9.4447C77.873 9.54075 78.2679 9.64747 78.7908 9.7862C79.3244 9.92494 79.762 10.085 80.0821 10.2558C80.4023 10.4372 80.6371 10.64 80.7865 10.8961C80.9359 11.1522 80.9999 11.4404 80.9999 11.7925C80.9999 12.4755 80.7545 13.0091 80.2529 13.3933C79.7833 13.7668 79.1003 13.9589 78.2252 13.9589Z" fill="#232323"/>
<path d="M13.3186 18.3344H3.47905C1.5581 18.3344 0 16.7763 0 14.8554V5.02654C0 3.10559 1.5581 1.54749 3.47905 1.54749H13.3186C15.2395 1.54749 16.7976 3.10559 16.7976 5.02654V14.8661C16.7976 16.7763 15.2395 18.3344 13.3186 18.3344Z" fill="#8748FF"/>
<path d="M10.6292 7.97191C10.4584 7.84385 10.2663 7.79049 10.0636 7.79049C9.72207 7.79049 9.36989 7.90788 9.00705 8.19602C8.6442 8.48417 8.26001 9.13515 8.05725 9.48733C8.05725 9.48733 8.29203 8.74029 8.29203 8.50551C8.29203 8.23871 8.24934 8.11065 8.09993 7.97191C7.95053 7.83318 7.7691 7.75847 7.47029 7.7478C7.2782 7.7478 7.06476 7.79049 6.95804 7.84385C6.84065 7.90788 6.63788 8.06796 6.68057 8.33476C6.71258 8.56954 6.89401 8.53753 6.89401 8.82567C6.89401 8.8897 6.86199 9.01776 6.8193 9.13515C6.8193 9.13515 6.28571 10.4265 6.00823 11.2375C5.93353 11.4723 5.85883 11.6751 5.93353 11.8565C6.07227 12.2087 7.00072 12.2514 7.25685 11.6644C7.58768 10.896 7.80112 10.0956 8.09993 9.64741C8.39875 9.20986 8.78294 8.76164 9.04974 8.68693C9.22049 8.64425 9.39124 8.70828 9.35922 8.9644C9.31653 9.35927 8.48412 10.8106 8.5695 11.483C8.63353 11.9846 9.07108 12.0913 9.31654 12.0913C9.7114 12.0913 9.90349 12.0166 10.2557 11.7498C10.6612 11.451 10.1489 11.7498 10.0209 11.6857C9.89282 11.6217 9.92483 11.3869 10.0956 10.9707C10.1276 10.9067 10.8533 9.17784 10.8853 8.58021C10.9067 8.30274 10.7999 8.0893 10.6292 7.97191Z" fill="#00FF00"/>
<path d="M12.6037 0.544269V2.79605C12.6037 3.09486 12.3582 3.34032 12.0594 3.34032C11.7606 3.34032 11.5151 3.09486 11.5151 2.79605V0.544269C11.5151 0.245455 11.7606 0 12.0594 0C12.3582 0 12.6037 0.245455 12.6037 0.544269Z" fill="#8748FF"/>
<path d="M5.28263 0.544269V2.79605C5.28263 3.09486 5.03717 3.34032 4.73836 3.34032C4.43955 3.34032 4.19409 3.09486 4.19409 2.79605V0.544269C4.19409 0.245455 4.43955 0 4.73836 0C5.03717 0 5.28263 0.245455 5.28263 0.544269Z" fill="#8748FF"/>
<path d="M20.8957 5.66685V14.2044C20.8957 14.6313 20.4048 14.8661 20.074 14.6099L17.8542 12.785L14.4712 9.89293L17.8542 7.09689L20.0633 5.28266C20.4048 5.00519 20.8957 5.23997 20.8957 5.66685Z" fill="#8748FF"/>
<path d="M4.32215 4.0553H1.93164V6.44581H4.32215V4.0553Z" fill="white"/>
<path d="M9.63685 4.0553H7.24634V6.44581H9.63685V4.0553Z" fill="white"/>
<path d="M14.9513 4.0553H12.5608V6.44581H14.9513V4.0553Z" fill="white"/>
<path d="M4.32215 8.51624H1.93164V10.9067H4.32215V8.51624Z" fill="white"/>
<path d="M14.9513 8.51624H12.5608V10.9067H14.9513V8.51624Z" fill="white"/>
<path d="M4.32215 12.9664H1.93164V15.3569H4.32215V12.9664Z" fill="white"/>
<path d="M9.63685 12.9664H7.24634V15.3569H9.63685V12.9664Z" fill="white"/>
<path d="M14.7593 21.8881C17.1581 21.8881 19.1027 19.9435 19.1027 17.5446C19.1027 15.1458 17.1581 13.2012 14.7593 13.2012C12.3604 13.2012 10.4158 15.1458 10.4158 17.5446C10.4158 19.9435 12.3604 21.8881 14.7593 21.8881Z" fill="#8748FF"/>
<path d="M11.4083 15.8584C11.4296 15.8264 11.4403 15.7944 11.4616 15.7624C11.515 15.6663 11.5684 15.5703 11.6324 15.4743C11.6537 15.4422 11.6751 15.3995 11.7071 15.3675C11.7498 15.3142 11.7818 15.2608 11.8245 15.2075C11.8352 15.1968 11.8458 15.1754 11.8565 15.1648C11.9526 15.0474 12.0593 14.93 12.1767 14.8233C12.198 14.8019 12.2194 14.7806 12.2407 14.7592C12.262 14.7379 12.2941 14.7165 12.3154 14.6952C12.3367 14.6845 12.3474 14.6632 12.3688 14.6525C12.4115 14.6205 12.4435 14.5885 12.4862 14.5565C12.4968 14.5458 12.5182 14.5351 12.5288 14.5245C12.5288 14.5245 12.5395 14.5244 12.5395 14.5138C12.5395 14.5138 12.5502 14.5138 12.5502 14.5031C12.5609 14.4924 12.5822 14.4818 12.5929 14.4711C12.6249 14.4497 12.6569 14.4284 12.6889 14.4071C12.8597 14.2897 13.0411 14.1936 13.2332 14.1082C13.2545 14.0976 13.2759 14.0869 13.2972 14.0762C13.4146 14.0229 13.532 13.9802 13.6601 13.9482C13.7028 13.9375 13.7454 13.9268 13.7881 13.9161C13.9375 13.8735 14.0869 13.8414 14.247 13.8201C14.279 13.8201 14.3004 13.8094 14.3324 13.8094C14.3537 13.8094 14.3751 13.8094 14.4071 13.7988C14.4284 13.7988 14.4498 13.7988 14.4605 13.7988C14.4711 13.7988 14.4925 13.7988 14.5032 13.7988C14.5138 13.7988 14.5245 13.7988 14.5245 13.7988C14.5992 13.7988 14.6846 13.7881 14.7593 13.7881C14.7699 13.7881 14.7806 13.7881 14.7913 13.7881C14.7913 13.7881 14.7913 13.7881 14.802 13.7881H14.8126C16.851 13.8201 18.4945 15.4743 18.5051 17.5126V17.5233C18.5051 19.5936 16.8296 21.2691 14.7593 21.2691C14.6739 21.2691 14.5992 21.2691 14.5245 21.2584C14.5138 21.2584 14.5032 21.2584 14.5032 21.2584C14.4925 21.2584 14.4711 21.2584 14.4605 21.2584C14.4391 21.2584 14.4178 21.2584 14.4071 21.2584C14.3858 21.2584 14.3644 21.2584 14.3324 21.2478C14.3004 21.2478 14.279 21.2371 14.247 21.2371C14.0869 21.2158 13.9375 21.1837 13.7881 21.1411C13.7454 21.1304 13.7028 21.1197 13.6601 21.109C13.5427 21.0663 13.4146 21.0237 13.2972 20.981C13.2759 20.9703 13.2545 20.9596 13.2332 20.949C13.0411 20.8636 12.8597 20.7675 12.6889 20.6501C12.6569 20.6288 12.6249 20.6075 12.5929 20.5861C12.5609 20.5648 12.5182 20.5328 12.4862 20.5114C12.4435 20.4794 12.4115 20.4474 12.3688 20.4154C12.3474 20.4047 12.3367 20.3833 12.3154 20.3727C12.2941 20.3513 12.262 20.33 12.2407 20.3086C12.2194 20.2873 12.198 20.266 12.1767 20.2446C12.0593 20.1379 11.9632 20.0205 11.8565 19.9031C11.8458 19.8924 11.8352 19.8711 11.8245 19.8604C11.7818 19.8071 11.7498 19.7537 11.7071 19.7003C11.6858 19.6683 11.6537 19.6363 11.6324 19.5936C11.5684 19.4976 11.515 19.4015 11.4616 19.3055C11.4403 19.2735 11.4296 19.2414 11.4083 19.2094C11.1522 18.7078 11.0134 18.1316 11.0134 17.5339C11.0134 16.9363 11.1628 16.3707 11.4083 15.8584ZM14.4818 20.7248V20.3727C14.4818 20.3513 14.4818 20.33 14.4925 20.3193C14.4925 20.3086 14.4925 20.3086 14.4925 20.298C14.4925 20.2873 14.5032 20.2766 14.5032 20.2766C14.5032 20.266 14.5138 20.2553 14.5138 20.2553C14.5245 20.2446 14.5352 20.2233 14.5458 20.2126C14.5565 20.2019 14.5565 20.2019 14.5672 20.1912C14.5885 20.1699 14.6099 20.1592 14.6312 20.1486C14.6312 20.1486 14.6419 20.1486 14.6419 20.1379C14.6419 20.1379 14.6526 20.1379 14.6526 20.1272C14.6632 20.1272 14.6739 20.1165 14.6952 20.1165H14.7059C14.7166 20.1165 14.7166 20.1165 14.7273 20.1165C14.7379 20.1165 14.7379 20.1165 14.7486 20.1165H14.7593C14.9087 20.1165 15.0367 20.2446 15.0367 20.394V20.7462C16.5842 20.6181 17.8221 19.3695 17.9395 17.8221H17.6407C17.4913 17.8221 17.3632 17.694 17.3632 17.5446C17.3632 17.3952 17.4913 17.2671 17.6407 17.2671H17.9395C17.8008 15.7411 16.5949 14.5244 15.0688 14.375V14.6632C15.0688 14.8126 14.9407 14.9407 14.7913 14.9407C14.7806 14.9407 14.7699 14.9407 14.7486 14.9407C14.7059 14.93 14.6739 14.9193 14.6419 14.898L14.6312 14.8873L14.6205 14.8766C14.6099 14.8766 14.6099 14.866 14.5992 14.8553L14.5885 14.8446C14.5885 14.8446 14.5885 14.8339 14.5779 14.8339C14.5779 14.8339 14.5779 14.8233 14.5672 14.8233C14.5672 14.8233 14.5672 14.8126 14.5565 14.8126C14.5458 14.8019 14.5458 14.7912 14.5352 14.7806C14.5352 14.7806 14.5352 14.7699 14.5245 14.7699V14.7592V14.7486C14.5245 14.7379 14.5245 14.7272 14.5138 14.7272V14.7165V14.7059V14.6952V14.6845V14.3964C12.9664 14.5138 11.7284 15.7197 11.579 17.2565H11.9099C12.0593 17.2565 12.1873 17.3845 12.1873 17.5339C12.1873 17.6833 12.0593 17.8114 11.9099 17.8114H11.5684C11.6858 19.3268 12.9237 20.5861 14.4818 20.7248Z" fill="white"/>
<path d="M13.5747 17.47C13.5747 17.4807 13.5853 17.4914 13.5853 17.502C13.596 17.5234 13.596 17.5341 13.6067 17.5554C13.6174 17.5767 13.628 17.5981 13.6494 17.6088L14.5672 18.5265C14.5778 18.5372 14.5778 18.5372 14.5885 18.5479C14.5992 18.5586 14.6098 18.5692 14.6205 18.5692C14.6205 18.5692 14.6312 18.5692 14.6312 18.5799C14.6419 18.5799 14.6419 18.5906 14.6525 18.5906H14.6632H14.6739C14.6846 18.5906 14.6952 18.5906 14.6952 18.6013H14.7059C14.7166 18.6013 14.7272 18.6013 14.7272 18.6013H14.7379C14.8126 18.6013 14.8766 18.5692 14.93 18.5159L16.5308 16.9151C16.6375 16.8084 16.6375 16.6376 16.5308 16.5202C16.4241 16.4135 16.2533 16.4135 16.1359 16.5202L14.7272 17.9289L14.0015 17.2032C13.8948 17.0965 13.7241 17.0965 13.6067 17.2032C13.5853 17.2246 13.5747 17.2352 13.564 17.2566C13.5533 17.2779 13.5427 17.2886 13.5427 17.3099C13.5427 17.3206 13.532 17.3313 13.532 17.342C13.564 17.406 13.564 17.438 13.5747 17.47Z" fill="white"/>
</svg>
