<svg width="64" height="16" viewBox="0 0 64 16" fill="none" xmlns="http://www.w3.org/2000/svg">
<path fill-rule="evenodd" clip-rule="evenodd" d="M25.9389 2.85906C24.5359 1.45606 22.6975 0.754058 20.8586 0.752808H20.8495C19.0106 0.753933 17.1723 1.45606 15.7693 2.85906C12.961 5.66731 12.961 10.2204 15.7693 13.0287C18.5775 15.8369 23.1306 15.8369 25.9389 13.0287C28.7471 10.2204 28.7471 5.66743 25.9389 2.85906ZM23.9049 10.9948C22.2199 12.6798 19.4881 12.6798 17.8031 10.9948C16.1181 9.30981 16.1181 6.57806 17.8031 4.89306C19.4881 3.20806 22.2199 3.20806 23.9049 4.89306C25.5899 6.57806 25.5899 9.30981 23.9049 10.9948Z" fill="#2D8CFF"/>
<path fill-rule="evenodd" clip-rule="evenodd" d="M41.04 2.85906C39.637 1.45606 37.7986 0.754058 35.9506 0.752808C34.1118 0.753933 32.2733 1.45606 30.8703 2.85906C28.0621 5.66731 28.0621 10.2204 30.8703 13.0287C33.6786 15.8369 38.2317 15.8369 41.04 13.0287C43.8482 10.2204 43.8482 5.66743 41.04 2.85906ZM39.006 10.9948C37.321 12.6798 34.5892 12.6798 32.9042 10.9948C31.2192 9.30981 31.2192 6.57806 32.9042 4.89306C34.5892 3.20806 37.3211 3.20806 39.006 4.89306C40.691 6.57806 40.691 9.30981 39.006 10.9948Z" fill="#2D8CFF"/>
<path fill-rule="evenodd" clip-rule="evenodd" d="M2.87637 15.0989L3.5955 15.1349H14.382L14.346 14.4166C14.2498 13.2326 13.4114 12.3687 12.2246 12.2946L11.5055 12.2586H5.03375L13.663 3.6293L13.627 2.91105C13.57 1.71768 12.6969 0.851805 11.5056 0.788805L10.7866 0.753555L0 0.75293L0.036 1.4713C0.129125 2.64118 0.98025 3.52543 2.1565 3.59331L2.8765 3.6293H9.34838L0.719125 12.2586L0.755125 12.9769C0.826 14.1624 1.68212 15.0203 2.87637 15.0989Z" fill="#2D8CFF"/>
<path fill-rule="evenodd" clip-rule="evenodd" d="M52.1069 5.06304C52.3532 5.48717 52.4305 5.96567 52.4584 6.50579L52.4944 7.22492V12.2587L52.5304 12.977C52.6015 14.153 53.466 15.0239 54.6524 15.0992L55.3707 15.1352V7.22504L55.4067 6.50592C55.4347 5.97254 55.513 5.48317 55.7612 5.05792C56.26 4.20354 57.1865 3.62954 58.2471 3.62954C59.3115 3.62954 60.2409 4.20767 60.7384 5.06717C60.9834 5.49042 61.0591 5.97904 61.0876 6.50604L61.1236 7.22442V12.2589L61.1596 12.9773C61.2342 14.1602 62.0935 15.0304 63.2816 15.0994L64 15.1354V7.23179V6.50617C64 3.32904 61.4244 0.753418 58.2472 0.753418C56.529 0.753418 54.9867 1.50667 53.9326 2.70104C52.8785 1.50667 51.3362 0.753418 49.618 0.753418C48.4242 0.753418 47.3154 1.11704 46.3962 1.73954C45.8367 1.11704 44.5844 0.753418 43.8652 0.753418V15.1354L44.5844 15.0994C45.7854 15.0204 46.6587 14.1722 46.7057 12.9783L46.7417 12.2589V7.22517L46.7777 6.50604C46.8081 5.96517 46.8834 5.48554 47.1306 5.06092C47.629 4.20504 48.5564 3.62967 49.6181 3.62967C50.6806 3.62929 51.6089 4.20579 52.1069 5.06304Z" fill="#2D8CFF"/>
</svg>
