<svg width="19" height="20" viewBox="0 0 19 20" fill="none" xmlns="http://www.w3.org/2000/svg">
<path d="M18.7836 18.239L14.1467 13.6021C15.2993 12.2161 15.9936 10.4363 15.9936 8.49707C15.9936 4.08747 12.4063 0.5 7.99687 0.5C3.58737 0.5 0 4.08747 0 8.49707C0 12.9064 3.58737 16.4936 7.99687 16.4936C9.93603 16.4936 11.7159 15.7993 13.1019 14.6467L17.739 19.2836C17.8832 19.4279 18.0723 19.5 18.2613 19.5C18.4503 19.5 18.6394 19.4279 18.7837 19.2836C19.0722 18.9951 19.0722 18.5275 18.7836 18.239ZM1.47742 8.49707C1.47742 4.90212 4.40202 1.97742 7.99687 1.97742C11.5916 1.97742 14.5161 4.90212 14.5161 8.49707C14.5161 12.0917 11.5916 15.0161 7.99687 15.0161C4.40202 15.0161 1.47742 12.0917 1.47742 8.49707Z" fill="#585858"/>
</svg>
