<svg width="22" height="18" viewBox="0 0 22 18" fill="none" xmlns="http://www.w3.org/2000/svg">
<path d="M18.1564 9.7179H16.5154C16.6826 10.1759 16.774 10.6701 16.774 11.1852V17.3873C16.774 17.6021 16.7367 17.8082 16.6686 18H19.3816C20.3951 18 21.2195 17.1755 21.2195 16.1621V12.781C21.2196 11.092 19.8454 9.7179 18.1564 9.7179Z" fill="#585858"/>
<path d="M4.44552 11.1852C4.44552 10.67 4.53691 10.1759 4.70418 9.7179H3.06315C1.37413 9.7179 0 11.092 0 12.781V16.1621C0 17.1755 0.824451 18 1.83789 18H4.55091C4.4829 17.8082 4.44552 17.6021 4.44552 17.3873V11.1852Z" fill="#585858"/>
<path d="M12.4857 8.12207H8.73405C7.04503 8.12207 5.6709 9.4962 5.6709 11.1852V17.3874C5.6709 17.7257 5.94518 18 6.28353 18H14.9362C15.2745 18 15.5488 17.7257 15.5488 17.3874V11.1852C15.5488 9.4962 14.1747 8.12207 12.4857 8.12207Z" fill="#585858"/>
<path d="M10.6096 0C8.57833 0 6.92578 1.65255 6.92578 3.68386C6.92578 5.06167 7.68624 6.26501 8.8093 6.89679C9.34198 7.19643 9.9561 7.36768 10.6096 7.36768C11.2631 7.36768 11.8772 7.19643 12.4099 6.89679C13.533 6.26501 14.2934 5.06163 14.2934 3.68386C14.2934 1.65259 12.6409 0 10.6096 0Z" fill="#585858"/>
<path d="M4.141 3.43359C2.62186 3.43359 1.38599 4.66946 1.38599 6.1886C1.38599 7.70774 2.62186 8.94361 4.141 8.94361C4.52634 8.94361 4.89329 8.86379 5.22663 8.72031C5.80295 8.47218 6.27815 8.03296 6.5722 7.48278C6.77859 7.09665 6.89601 6.65614 6.89601 6.1886C6.89601 4.6695 5.66014 3.43359 4.141 3.43359Z" fill="#585858"/>
<path d="M17.0785 3.43359C15.5594 3.43359 14.3235 4.66946 14.3235 6.1886C14.3235 6.65618 14.4409 7.09669 14.6473 7.48278C14.9413 8.033 15.4165 8.47223 15.9929 8.72031C16.3262 8.86379 16.6931 8.94361 17.0785 8.94361C18.5976 8.94361 19.8335 7.70774 19.8335 6.1886C19.8335 4.66946 18.5976 3.43359 17.0785 3.43359Z" fill="#585858"/>
</svg>
